# xmcd CD database file
#
# Track frame offsets:
#	150
#	26856
#	49120
#	69727
#	87769
#	111332
#	138802
#	155265
#	168875
#	186431
#	213039
#	234010
#	254805
#
# Disc length: 3573 seconds
#
# Revision: 0
# Processed by: cddbd v1.5.2PL0 Copyright (c) Steve Scherf et al.
# Submitted via: CDex 1.77
#
DISCID=ad0df30d
DTITLE=Dorothy-Jane - The Witness
DYEAR=2019
DGENRE=Blues
TTITLE0=Will I ever love again?
TTITLE1=Why my husband went away
TTITLE2=The witness
TTITLE3=Daddy's little girl
TTITLE4=Lay my troubles down
TTITLE5=Monsters
TTITLE6=Girl Song
TTITLE7=The wonder of you
TTITLE8=Speak out
TTITLE9=Grief
TTITLE10=I'm OK
TTITLE11=On my own
TTITLE12=Rest
EXTD=YEAR: 2019
EXTT0=
EXTT1=
EXTT2=
EXTT3=
EXTT4=
EXTT5=
EXTT6=
EXTT7=
EXTT8=
EXTT9=
EXTT10=
EXTT11=
EXTT12=
PLAYORDER=
